G04 #@! TF.GenerationSoftware,KiCad,Pcbnew,9.0.5*
G04 #@! TF.CreationDate,2026-01-02T00:08:48+00:00*
G04 #@! TF.ProjectId,PIKBD,50494b42-442e-46b6-9963-61645f706362,2.2*
G04 #@! TF.SameCoordinates,Original*
G04 #@! TF.FileFunction,Legend,Bot*
G04 #@! TF.FilePolarity,Positive*
%FSLAX46Y46*%
G04 Gerber Fmt 4.6, Leading zero omitted, Abs format (unit mm)*
G04 Created by KiCad (PCBNEW 9.0.5) date 2026-01-02 00:08:48*
%MOMM*%
%LPD*%
G01*
G04 APERTURE LIST*
G04 Aperture macros list*
%AMRoundRect*
0 Rectangle with rounded corners*
0 $1 Rounding radius*
0 $2 $3 $4 $5 $6 $7 $8 $9 X,Y pos of 4 corners*
0 Add a 4 corners polygon primitive as box body*
4,1,4,$2,$3,$4,$5,$6,$7,$8,$9,$2,$3,0*
0 Add four circle primitives for the rounded corners*
1,1,$1+$1,$2,$3*
1,1,$1+$1,$4,$5*
1,1,$1+$1,$6,$7*
1,1,$1+$1,$8,$9*
0 Add four rect primitives between the rounded corners*
20,1,$1+$1,$2,$3,$4,$5,0*
20,1,$1+$1,$4,$5,$6,$7,0*
20,1,$1+$1,$6,$7,$8,$9,0*
20,1,$1+$1,$8,$9,$2,$3,0*%
G04 Aperture macros list end*
%ADD10C,4.000000*%
%ADD11R,1.600000X1.600000*%
%ADD12C,1.600000*%
%ADD13C,2.000000*%
%ADD14R,1.700000X1.700000*%
%ADD15C,1.700000*%
%ADD16O,1.700000X1.700000*%
%ADD17O,1.800000X1.800000*%
%ADD18O,1.500000X1.500000*%
%ADD19C,3.250000*%
%ADD20RoundRect,0.250000X0.510000X-0.510000X0.510000X0.510000X-0.510000X0.510000X-0.510000X-0.510000X0*%
%ADD21C,1.520000*%
%ADD22R,1.800000X1.800000*%
%ADD23C,1.800000*%
G04 APERTURE END LIST*
%LPC*%
D10*
X110420000Y-65545000D03*
X110420000Y-90545000D03*
D11*
X111840000Y-72505000D03*
D12*
X111840000Y-75275000D03*
X111840000Y-78045000D03*
X111840000Y-80815000D03*
X111840000Y-83585000D03*
X109000000Y-73890000D03*
X109000000Y-76660000D03*
X109000000Y-79430000D03*
X109000000Y-82200000D03*
D13*
X158760000Y-80190000D03*
X158760000Y-86690000D03*
X154260000Y-80190000D03*
X154260000Y-86690000D03*
X182300000Y-70000000D03*
X182300000Y-63500000D03*
X186800000Y-70000000D03*
X186800000Y-63500000D03*
D14*
X163260000Y-114114812D03*
D15*
X163260000Y-116654812D03*
X163260000Y-119194812D03*
X163260000Y-121734812D03*
X163260000Y-124274812D03*
X163260000Y-126814812D03*
D14*
X186750000Y-79680000D03*
D16*
X186750000Y-82220000D03*
X186750000Y-84760000D03*
X186750000Y-87300000D03*
D14*
X153260000Y-114114812D03*
D15*
X153260000Y-116654812D03*
X153260000Y-119194812D03*
X153260000Y-121734812D03*
X153260000Y-124274812D03*
X153260000Y-126814812D03*
D17*
X138076324Y-124005000D03*
D18*
X137776324Y-120975000D03*
X132926324Y-120975000D03*
D17*
X132626324Y-124005000D03*
D16*
X144241324Y-124135000D03*
X144241324Y-121595000D03*
D14*
X144241324Y-119055000D03*
D16*
X144241324Y-116515000D03*
X144241324Y-113975000D03*
X144241324Y-111435000D03*
X144241324Y-108895000D03*
D14*
X144241324Y-106355000D03*
D16*
X144241324Y-103815000D03*
X144241324Y-101275000D03*
X144241324Y-98735000D03*
X144241324Y-96195000D03*
D14*
X144241324Y-93655000D03*
D16*
X144241324Y-91115000D03*
X144241324Y-88575000D03*
X144241324Y-86035000D03*
X144241324Y-83495000D03*
D14*
X144241324Y-80955000D03*
D16*
X144241324Y-78415000D03*
X144241324Y-75875000D03*
X126461324Y-75875000D03*
X126461324Y-78415000D03*
D14*
X126461324Y-80955000D03*
D16*
X126461324Y-83495000D03*
X126461324Y-86035000D03*
X126461324Y-88575000D03*
X126461324Y-91115000D03*
D14*
X126461324Y-93655000D03*
D16*
X126461324Y-96195000D03*
X126461324Y-98735000D03*
X126461324Y-101275000D03*
X126461324Y-103815000D03*
D14*
X126461324Y-106355000D03*
D16*
X126461324Y-108895000D03*
X126461324Y-111435000D03*
X126461324Y-113975000D03*
X126461324Y-116515000D03*
D14*
X126461324Y-119055000D03*
D16*
X126461324Y-121595000D03*
X126461324Y-124135000D03*
X137891324Y-76105000D03*
D14*
X135351324Y-76105000D03*
D16*
X132811324Y-76105000D03*
D19*
X179600000Y-125360000D03*
X179600000Y-115200000D03*
D20*
X170710000Y-123460000D03*
D21*
X173250000Y-122190000D03*
X170710000Y-120920000D03*
X173250000Y-119650000D03*
X170710000Y-118380000D03*
X173250000Y-117110000D03*
D13*
X158760000Y-64000000D03*
X158760000Y-70500000D03*
X154260000Y-64000000D03*
X154260000Y-70500000D03*
D22*
X128740000Y-64000000D03*
D23*
X126200000Y-64000000D03*
D10*
X110420000Y-97945000D03*
X110420000Y-122945000D03*
D11*
X111840000Y-104905000D03*
D12*
X111840000Y-107675000D03*
X111840000Y-110445000D03*
X111840000Y-113215000D03*
X111840000Y-115985000D03*
X109000000Y-106290000D03*
X109000000Y-109060000D03*
X109000000Y-111830000D03*
X109000000Y-114600000D03*
D13*
X158830000Y-96070000D03*
X158830000Y-102570000D03*
X154330000Y-96070000D03*
X154330000Y-102570000D03*
%LPD*%
M02*
