M48
; DRILL file {KiCad 9.0.5} date 2026-01-02T00:08:59+0000
; FORMAT={-:-/ absolute / metric / decimal}
; #@! TF.CreationDate,2026-01-02T00:08:59+00:00
; #@! TF.GenerationSoftware,Kicad,Pcbnew,9.0.5
; #@! TF.FileFunction,Plated,1,2,PTH
FMAT,2
METRIC
; #@! TA.AperFunction,Plated,PTH,ComponentDrill
T1C0.760
; #@! TA.AperFunction,Plated,PTH,ComponentDrill
T2C0.900
; #@! TA.AperFunction,Plated,PTH,ComponentDrill
T3C1.000
; #@! TA.AperFunction,Plated,PTH,ComponentDrill
T4C1.020
; #@! TA.AperFunction,Plated,PTH,ComponentDrill
T5C1.100
; #@! TA.AperFunction,Plated,PTH,ComponentDrill
T6C3.200
%
G90
G05
T1
X170.71Y-118.38
X170.71Y-120.92
X170.71Y-123.46
X173.25Y-117.11
X173.25Y-119.65
X173.25Y-122.19
T2
X126.2Y-64.0
X128.74Y-64.0
T3
X109.0Y-73.89
X109.0Y-76.66
X109.0Y-79.43
X109.0Y-82.2
X109.0Y-106.29
X109.0Y-109.06
X109.0Y-111.83
X109.0Y-114.6
X111.84Y-72.505
X111.84Y-75.275
X111.84Y-78.045
X111.84Y-80.815
X111.84Y-83.585
X111.84Y-104.905
X111.84Y-107.675
X111.84Y-110.445
X111.84Y-113.215
X111.84Y-115.985
X153.26Y-114.115
X153.26Y-116.655
X153.26Y-119.195
X153.26Y-121.735
X153.26Y-124.275
X153.26Y-126.815
X163.26Y-114.115
X163.26Y-116.655
X163.26Y-119.195
X163.26Y-121.735
X163.26Y-124.275
X163.26Y-126.815
X186.75Y-79.68
X186.75Y-82.22
X186.75Y-84.76
X186.75Y-87.3
T4
X126.461Y-75.875
X126.461Y-78.415
X126.461Y-80.955
X126.461Y-83.495
X126.461Y-86.035
X126.461Y-88.575
X126.461Y-91.115
X126.461Y-93.655
X126.461Y-96.195
X126.461Y-98.735
X126.461Y-101.275
X126.461Y-103.815
X126.461Y-106.355
X126.461Y-108.895
X126.461Y-111.435
X126.461Y-113.975
X126.461Y-116.515
X126.461Y-119.055
X126.461Y-121.595
X126.461Y-124.135
X132.811Y-76.105
X135.351Y-76.105
X137.891Y-76.105
X144.241Y-75.875
X144.241Y-78.415
X144.241Y-80.955
X144.241Y-83.495
X144.241Y-86.035
X144.241Y-88.575
X144.241Y-91.115
X144.241Y-93.655
X144.241Y-96.195
X144.241Y-98.735
X144.241Y-101.275
X144.241Y-103.815
X144.241Y-106.355
X144.241Y-108.895
X144.241Y-111.435
X144.241Y-113.975
X144.241Y-116.515
X144.241Y-119.055
X144.241Y-121.595
X144.241Y-124.135
T5
X154.26Y-64.0
X154.26Y-70.5
X154.26Y-80.19
X154.26Y-86.69
X154.33Y-96.07
X154.33Y-102.57
X158.76Y-64.0
X158.76Y-70.5
X158.76Y-80.19
X158.76Y-86.69
X158.83Y-96.07
X158.83Y-102.57
X182.3Y-63.5
X182.3Y-70.0
X186.8Y-63.5
X186.8Y-70.0
T6
X110.42Y-65.545
X110.42Y-90.545
X110.42Y-97.945
X110.42Y-122.945
M30
