G04 #@! TF.GenerationSoftware,KiCad,Pcbnew,9.0.5*
G04 #@! TF.CreationDate,2026-01-02T00:08:48+00:00*
G04 #@! TF.ProjectId,PIKBD,50494b42-442e-46b6-9963-61645f706362,2.2*
G04 #@! TF.SameCoordinates,Original*
G04 #@! TF.FileFunction,Copper,L2,Bot*
G04 #@! TF.FilePolarity,Positive*
%FSLAX46Y46*%
G04 Gerber Fmt 4.6, Leading zero omitted, Abs format (unit mm)*
G04 Created by KiCad (PCBNEW 9.0.5) date 2026-01-02 00:08:48*
%MOMM*%
%LPD*%
G01*
G04 APERTURE LIST*
G04 Aperture macros list*
%AMRoundRect*
0 Rectangle with rounded corners*
0 $1 Rounding radius*
0 $2 $3 $4 $5 $6 $7 $8 $9 X,Y pos of 4 corners*
0 Add a 4 corners polygon primitive as box body*
4,1,4,$2,$3,$4,$5,$6,$7,$8,$9,$2,$3,0*
0 Add four circle primitives for the rounded corners*
1,1,$1+$1,$2,$3*
1,1,$1+$1,$4,$5*
1,1,$1+$1,$6,$7*
1,1,$1+$1,$8,$9*
0 Add four rect primitives between the rounded corners*
20,1,$1+$1,$2,$3,$4,$5,0*
20,1,$1+$1,$4,$5,$6,$7,0*
20,1,$1+$1,$6,$7,$8,$9,0*
20,1,$1+$1,$8,$9,$2,$3,0*%
G04 Aperture macros list end*
G04 #@! TA.AperFunction,ComponentPad*
%ADD10C,4.000000*%
G04 #@! TD*
G04 #@! TA.AperFunction,ComponentPad*
%ADD11R,1.600000X1.600000*%
G04 #@! TD*
G04 #@! TA.AperFunction,ComponentPad*
%ADD12C,1.600000*%
G04 #@! TD*
G04 #@! TA.AperFunction,ComponentPad*
%ADD13C,2.000000*%
G04 #@! TD*
G04 #@! TA.AperFunction,ComponentPad*
%ADD14R,1.700000X1.700000*%
G04 #@! TD*
G04 #@! TA.AperFunction,ComponentPad*
%ADD15C,1.700000*%
G04 #@! TD*
G04 #@! TA.AperFunction,ComponentPad*
%ADD16O,1.700000X1.700000*%
G04 #@! TD*
G04 #@! TA.AperFunction,ComponentPad*
%ADD17RoundRect,0.250000X0.510000X-0.510000X0.510000X0.510000X-0.510000X0.510000X-0.510000X-0.510000X0*%
G04 #@! TD*
G04 #@! TA.AperFunction,ComponentPad*
%ADD18C,1.520000*%
G04 #@! TD*
G04 #@! TA.AperFunction,ComponentPad*
%ADD19R,1.800000X1.800000*%
G04 #@! TD*
G04 #@! TA.AperFunction,ComponentPad*
%ADD20C,1.800000*%
G04 #@! TD*
G04 #@! TA.AperFunction,Conductor*
%ADD21C,0.250000*%
G04 #@! TD*
G04 APERTURE END LIST*
D10*
X110420000Y-65545000D03*
X110420000Y-90545000D03*
D11*
X111840000Y-72505000D03*
D12*
X111840000Y-75275000D03*
X111840000Y-78045000D03*
X111840000Y-80815000D03*
X111840000Y-83585000D03*
X109000000Y-73890000D03*
X109000000Y-76660000D03*
X109000000Y-79430000D03*
X109000000Y-82200000D03*
D13*
X158760000Y-80190000D03*
X158760000Y-86690000D03*
X154260000Y-80190000D03*
X154260000Y-86690000D03*
X182300000Y-70000000D03*
X182300000Y-63500000D03*
X186800000Y-70000000D03*
X186800000Y-63500000D03*
D14*
X163260000Y-114114812D03*
D15*
X163260000Y-116654812D03*
X163260000Y-119194812D03*
X163260000Y-121734812D03*
X163260000Y-124274812D03*
X163260000Y-126814812D03*
D14*
X186750000Y-79680000D03*
D16*
X186750000Y-82220000D03*
X186750000Y-84760000D03*
X186750000Y-87300000D03*
D14*
X153260000Y-114114812D03*
D15*
X153260000Y-116654812D03*
X153260000Y-119194812D03*
X153260000Y-121734812D03*
X153260000Y-124274812D03*
X153260000Y-126814812D03*
D16*
X144241324Y-124135000D03*
X144241324Y-121595000D03*
D14*
X144241324Y-119055000D03*
D16*
X144241324Y-116515000D03*
X144241324Y-113975000D03*
X144241324Y-111435000D03*
X144241324Y-108895000D03*
D14*
X144241324Y-106355000D03*
D16*
X144241324Y-103815000D03*
X144241324Y-101275000D03*
X144241324Y-98735000D03*
X144241324Y-96195000D03*
D14*
X144241324Y-93655000D03*
D16*
X144241324Y-91115000D03*
X144241324Y-88575000D03*
X144241324Y-86035000D03*
X144241324Y-83495000D03*
D14*
X144241324Y-80955000D03*
D16*
X144241324Y-78415000D03*
X144241324Y-75875000D03*
X126461324Y-75875000D03*
X126461324Y-78415000D03*
D14*
X126461324Y-80955000D03*
D16*
X126461324Y-83495000D03*
X126461324Y-86035000D03*
X126461324Y-88575000D03*
X126461324Y-91115000D03*
D14*
X126461324Y-93655000D03*
D16*
X126461324Y-96195000D03*
X126461324Y-98735000D03*
X126461324Y-101275000D03*
X126461324Y-103815000D03*
D14*
X126461324Y-106355000D03*
D16*
X126461324Y-108895000D03*
X126461324Y-111435000D03*
X126461324Y-113975000D03*
X126461324Y-116515000D03*
D14*
X126461324Y-119055000D03*
D16*
X126461324Y-121595000D03*
X126461324Y-124135000D03*
X137891324Y-76105000D03*
D14*
X135351324Y-76105000D03*
D16*
X132811324Y-76105000D03*
D17*
X170710000Y-123460000D03*
D18*
X173250000Y-122190000D03*
X170710000Y-120920000D03*
X173250000Y-119650000D03*
X170710000Y-118380000D03*
X173250000Y-117110000D03*
D13*
X158760000Y-64000000D03*
X158760000Y-70500000D03*
X154260000Y-64000000D03*
X154260000Y-70500000D03*
D19*
X128740000Y-64000000D03*
D20*
X126200000Y-64000000D03*
D10*
X110420000Y-97945000D03*
X110420000Y-122945000D03*
D11*
X111840000Y-104905000D03*
D12*
X111840000Y-107675000D03*
X111840000Y-110445000D03*
X111840000Y-113215000D03*
X111840000Y-115985000D03*
X109000000Y-106290000D03*
X109000000Y-109060000D03*
X109000000Y-111830000D03*
X109000000Y-114600000D03*
D13*
X158830000Y-96070000D03*
X158830000Y-102570000D03*
X154330000Y-96070000D03*
X154330000Y-102570000D03*
D21*
X186800000Y-70000000D02*
X186800000Y-79630000D01*
X163747116Y-120370812D02*
X162772884Y-120370812D01*
X154260000Y-80190000D02*
X154260000Y-86690000D01*
X186750000Y-79680000D02*
X184914000Y-81516000D01*
X154330000Y-102570000D02*
X164436000Y-112676000D01*
X154260000Y-86690000D02*
X154260000Y-96000000D01*
X164436000Y-119681928D02*
X163747116Y-120370812D01*
X154260000Y-70500000D02*
X154260000Y-80190000D01*
X164436000Y-112676000D02*
X164436000Y-119681928D01*
X186800000Y-79630000D02*
X186750000Y-79680000D01*
X149544000Y-125450812D02*
X153260000Y-121734812D01*
X155586000Y-81516000D02*
X154260000Y-80190000D01*
X125285324Y-124622116D02*
X126114020Y-125450812D01*
X162772884Y-120370812D02*
X161408884Y-121734812D01*
X161408884Y-121734812D02*
X153260000Y-121734812D01*
X126114020Y-125450812D02*
X149544000Y-125450812D01*
X154260000Y-96000000D02*
X154330000Y-96070000D01*
X126461324Y-119055000D02*
X125285324Y-120231000D01*
X184914000Y-81516000D02*
X155586000Y-81516000D01*
X128740000Y-64000000D02*
X154260000Y-64000000D01*
X125285324Y-120231000D02*
X125285324Y-124622116D01*
X154330000Y-96070000D02*
X154330000Y-102570000D01*
X154260000Y-64000000D02*
X154260000Y-70500000D01*
X151944188Y-117879000D02*
X153260000Y-119194812D01*
X126200000Y-64000000D02*
X127637324Y-65437324D01*
X130365324Y-117879000D02*
X151944188Y-117879000D01*
X144728440Y-112611000D02*
X127825324Y-112611000D01*
X127825324Y-112611000D02*
X126461324Y-113975000D01*
X128355648Y-82319000D02*
X144728440Y-82319000D01*
X144728440Y-82319000D02*
X145868324Y-83458884D01*
X127637324Y-81600676D02*
X128355648Y-82319000D01*
X145868324Y-83458884D02*
X145868324Y-111471116D01*
X127637324Y-65437324D02*
X127637324Y-81600676D01*
X126461324Y-113975000D02*
X130365324Y-117879000D01*
X145868324Y-111471116D02*
X144728440Y-112611000D01*
X152960884Y-120370812D02*
X162084000Y-120370812D01*
X143712208Y-122729000D02*
X143754208Y-122771000D01*
X163985000Y-119194812D02*
X163985000Y-119495118D01*
X126461324Y-124135000D02*
X127867324Y-122729000D01*
X143754208Y-122771000D02*
X150560696Y-122771000D01*
X162084000Y-120370812D02*
X163260000Y-119194812D01*
X163260000Y-119194812D02*
X163985000Y-119194812D01*
X150560696Y-122771000D02*
X152960884Y-120370812D01*
X127867324Y-122729000D02*
X143712208Y-122729000D01*
X110420000Y-90545000D02*
X107423000Y-87548000D01*
X107423000Y-68542000D02*
X110420000Y-65545000D01*
X107423000Y-87548000D02*
X107423000Y-68542000D01*
X112931324Y-72505000D02*
X126461324Y-86035000D01*
X111840000Y-72505000D02*
X112931324Y-72505000D01*
X111840000Y-75275000D02*
X125140000Y-88575000D01*
X125140000Y-88575000D02*
X126461324Y-88575000D01*
X111840000Y-78045000D02*
X113391324Y-78045000D01*
X113391324Y-78045000D02*
X126461324Y-91115000D01*
X111840000Y-81573676D02*
X126461324Y-96195000D01*
X111840000Y-80815000D02*
X111840000Y-81573676D01*
X124136201Y-64329973D02*
X124136201Y-81169877D01*
X125792174Y-62674000D02*
X124136201Y-64329973D01*
X158760000Y-70500000D02*
X158760000Y-66624752D01*
X158760000Y-64000000D02*
X158760000Y-70500000D01*
X124136201Y-81169877D02*
X126461324Y-83495000D01*
X158760000Y-66624752D02*
X154809248Y-62674000D01*
X154809248Y-62674000D02*
X125792174Y-62674000D01*
X158830000Y-102570000D02*
X158830000Y-96070000D01*
X110714000Y-75604000D02*
X110714000Y-85527676D01*
X109000000Y-73890000D02*
X110714000Y-75604000D01*
X110714000Y-85527676D02*
X126461324Y-101275000D01*
X107874000Y-73423595D02*
X108533595Y-72764000D01*
X109000000Y-79430000D02*
X107874000Y-78304000D01*
X126948440Y-87399000D02*
X127637324Y-88087884D01*
X127637324Y-92479000D02*
X126461324Y-93655000D01*
X109988595Y-72764000D02*
X111373595Y-74149000D01*
X127637324Y-88087884D02*
X127637324Y-92479000D01*
X112724208Y-74149000D02*
X125974208Y-87399000D01*
X108533595Y-72764000D02*
X109988595Y-72764000D01*
X107874000Y-78304000D02*
X107874000Y-73423595D01*
X111373595Y-74149000D02*
X112724208Y-74149000D01*
X125974208Y-87399000D02*
X126948440Y-87399000D01*
X110420000Y-122945000D02*
X110420000Y-97945000D01*
X128088324Y-85998884D02*
X128088324Y-97108000D01*
X174523000Y-62223000D02*
X125605364Y-62223000D01*
X123685201Y-82381993D02*
X125974208Y-84671000D01*
X126760440Y-84671000D02*
X128088324Y-85998884D01*
X125605364Y-62223000D02*
X123685201Y-64143163D01*
X182300000Y-70000000D02*
X174523000Y-62223000D01*
X125974208Y-84671000D02*
X126760440Y-84671000D01*
X123685201Y-64143163D02*
X123685201Y-82381993D01*
X128088324Y-97108000D02*
X126461324Y-98735000D01*
X111840000Y-110445000D02*
X119646000Y-102639000D01*
X127637324Y-102639000D02*
X144241324Y-86035000D01*
X119646000Y-102639000D02*
X127637324Y-102639000D01*
X143343812Y-94831000D02*
X145417324Y-94831000D01*
X130455812Y-107719000D02*
X143343812Y-94831000D01*
X117336000Y-107719000D02*
X130455812Y-107719000D01*
X145417324Y-94831000D02*
X145417324Y-84671000D01*
X145417324Y-84671000D02*
X144241324Y-83495000D01*
X111840000Y-113215000D02*
X117336000Y-107719000D01*
M02*
